External Loads File
version=1
nRows=62
nColumns=13
Range=5.000000e-03-10 seconds
endheader
time 	forceRightX 	forceRightY 	forceRightZ 	pointRightX 	pointRightY 	pointRightZ 	forceLeftX 	forceLeftY 	forceLeftZ 	pointLeftX 	pointLeftY 	pointLeftZ 		
2.505000 23.743965 85.211911 -0.000000 0.454377 0.418040 -0.195429 16.927685 108.555821 -0.000000 0.184270 0.242263 -0.440768
2.510000 23.849232 85.004584 -0.000000 0.454398 0.418054 -0.195426 16.597890 108.010653 -0.000000 0.184270 0.242243 -0.440759
2.515000 23.904848 84.819463 -0.000000 0.454422 0.418105 -0.195421 16.390862 107.603201 -0.000000 0.184248 0.242210 -0.440760
2.520000 23.963621 84.630378 -0.000000 0.454458 0.418104 -0.195421 16.393688 107.358622 -0.000000 0.184207 0.242301 -0.440764
2.525000 23.981576 84.457688 -0.000000 0.454498 0.418120 -0.195382 16.537776 107.317672 -0.000000 0.184147 0.242307 -0.440769
2.530000 24.015352 84.312443 -0.000000 0.454549 0.418108 -0.195392 16.875259 107.492263 -0.000000 0.184077 0.242346 -0.440745
2.535000 24.062760 84.233384 -0.000000 0.454584 0.418092 -0.195393 17.374424 107.895620 -0.000000 0.183992 0.242384 -0.440733
2.540000 24.139425 84.249325 -0.000000 0.454630 0.418061 -0.195404 18.027444 108.541345 -0.000000 0.183909 0.242433 -0.440716
2.545000 24.221116 84.379614 -0.000000 0.454648 0.418061 -0.195394 18.784568 109.442513 -0.000000 0.183848 0.242475 -0.440713
2.550000 24.295119 84.608754 -0.000000 0.454656 0.418030 -0.195392 19.609689 110.569904 -0.000000 0.183786 0.242477 -0.440709
2.555000 24.277352 84.923783 -0.000000 0.454652 0.418015 -0.195400 20.373261 111.880049 -0.000000 0.183742 0.242306 -0.440706
2.560000 24.209341 85.298629 -0.000000 0.454625 0.418024 -0.195383 21.108741 113.295043 -0.000000 0.183724 0.242300 -0.440703
2.565000 24.041086 85.777200 -0.000000 0.454582 0.418025 -0.195386 21.744036 114.760704 -0.000000 0.183720 0.242292 -0.440704
2.570000 23.729046 86.419793 -0.000000 0.454529 0.418008 -0.195381 22.277834 116.224047 -0.000000 0.183732 0.242251 -0.440704
2.575000 23.237631 87.278174 -0.000000 0.454462 0.418013 -0.195418 22.783404 117.614476 -0.000000 0.183777 0.242408 -0.440716
2.580000 22.375171 88.455923 -0.000000 0.454385 0.418012 -0.195416 23.140171 118.868765 -0.000000 0.183831 0.242362 -0.440715
2.585000 21.099800 90.060451 -0.000000 0.454312 0.417973 -0.195411 23.422587 119.864982 -0.000000 0.183887 0.242369 -0.440724
2.590000 19.291132 92.271913 -0.000000 0.454239 0.417903 -0.195448 23.589956 120.502557 -0.000000 0.183957 0.242363 -0.440755
2.595000 16.867771 95.287985 -0.000000 0.454170 0.417816 -0.195453 23.660075 120.684300 -0.000000 0.184015 0.242408 -0.440761
2.600000 13.706032 99.321211 -0.000000 0.454081 0.417691 -0.195416 23.618627 120.340627 -0.000000 0.184059 0.242436 -0.440798
2.605000 9.710392 104.588373 -0.000000 0.453982 0.417541 -0.195400 23.501732 119.411657 -0.000000 0.184080 0.242495 -0.440813
2.610000 4.805475 111.312228 -0.000000 0.453887 0.417294 -0.195405 23.380022 117.873548 -0.000000 0.184085 0.242555 -0.440828
2.615000 -1.023693 119.691408 -0.000000 0.453801 0.416972 -0.195335 23.369537 115.753270 -0.000000 0.184059 0.242730 -0.440849
2.620000 -7.780727 129.865102 -0.000000 0.453704 0.416603 -0.195321 23.514356 113.142177 -0.000000 0.183994 0.242950 -0.440830
2.625000 -15.344778 141.895296 -0.000000 0.453617 0.416144 -0.195226 23.860767 110.187876 -0.000000 0.183912 0.243154 -0.440817
2.630000 -23.573848 155.764887 -0.000000 0.453440 0.415720 -0.195140 24.350004 107.114444 -0.000000 0.183861 0.243346 -0.440807
2.635000 -32.261276 171.390267 -0.000000 0.453168 0.415389 -0.195005 24.910928 104.171429 -0.000000 0.183827 0.243470 -0.440792
2.640000 -41.147610 188.662797 -0.000000 0.452777 0.415030 -0.194950 25.553832 101.561216 -0.000000 0.183805 0.243528 -0.440791
2.645000 -50.035492 207.482623 -0.000000 0.452268 0.414576 -0.194817 26.355076 99.372844 -0.000000 0.183804 0.243634 -0.440787
2.650000 -59.035365 227.734892 -0.000000 0.451734 0.414176 -0.194722 27.345488 97.590547 -0.000000 0.183783 0.243680 -0.440780
2.655000 -68.229939 249.383103 -0.000000 0.450986 0.413754 -0.194754 28.655660 96.092963 -0.000000 0.183723 0.243774 -0.440800
2.660000 -77.540126 272.501969 -0.000000 0.450335 0.413219 -0.194740 30.475280 94.688371 -0.000000 0.183643 0.243978 -0.440817
2.665000 -87.300618 297.071137 -0.000000 0.449736 0.412749 -0.194631 32.797617 93.231699 -0.000000 0.183550 0.244202 -0.440865
2.670000 -97.495716 323.120714 -0.000000 0.449081 0.412206 -0.194619 35.682998 91.583584 -0.000000 0.183420 0.244500 -0.440862
2.675000 -108.222820 350.505003 -0.000000 0.448442 0.411610 -0.194520 39.050962 89.672838 -0.000000 0.183300 0.244785 -0.440914
2.680000 -119.373373 378.947151 -0.000000 0.447926 0.410945 -0.194329 42.755723 87.452197 -0.000000 0.183143 0.245004 -0.440936
2.685000 -131.043003 407.975112 -0.000000 0.447244 0.410263 -0.194416 46.508641 84.930757 -0.000000 0.183034 0.245237 -0.440960
2.690000 -142.900068 437.157081 -0.000000 0.446700 0.409623 -0.194158 50.097398 82.101450 -0.000000 0.182914 0.245491 -0.440964
2.695000 -154.899035 465.866986 -0.000000 0.446173 0.408990 -0.194009 53.296184 79.023985 -0.000000 0.182817 0.245707 -0.440941
2.700000 -166.631746 493.583996 -0.000000 0.445686 0.408272 -0.193865 56.003932 75.721653 -0.000000 0.182720 0.245959 -0.440927
2.705000 -178.296170 519.691731 -0.000000 0.445315 0.407691 -0.193738 58.076305 72.265195 -0.000000 0.182653 0.246214 -0.440908
2.710000 -189.775222 543.825632 -0.000000 0.445040 0.407158 -0.193570 59.503844 68.672648 -0.000000 0.182614 0.246446 -0.440897
2.715000 -200.788939 565.826036 -0.000000 0.444893 0.406577 -0.193463 60.371981 64.936601 -0.000000 0.182546 0.246653 -0.440847
2.720000 -211.274904 585.600652 -0.000000 0.444847 0.406017 -0.193345 60.794842 61.067594 -0.000000 0.182473 0.246928 -0.440802
2.725000 -221.340215 603.125263 -0.000000 0.444891 0.405528 -0.193285 60.905521 57.083378 -0.000000 0.182419 0.247223 -0.440785
2.730000 -230.669186 618.641831 -0.000000 0.444991 0.405020 -0.193221 60.877611 52.949947 -0.000000 0.182339 0.247566 -0.440793
2.735000 -239.328732 632.351008 -0.000000 0.445120 0.404536 -0.193149 60.824610 48.680718 -0.000000 0.182251 0.247930 -0.440788
2.740000 -247.192624 644.609424 -0.000000 0.445243 0.403970 -0.193064 60.848905 44.289583 -0.000000 0.182161 0.248274 -0.440839
2.745000 -254.465088 655.713064 -0.000000 0.445433 0.403506 -0.193035 61.010202 39.847964 -0.000000 0.182039 0.248614 -0.440858
2.750000 -260.900656 666.173570 -0.000000 0.445593 0.402936 -0.192921 61.400587 35.408610 -0.000000 0.181877 0.248956 -0.440875
2.755000 -266.705861 676.333799 -0.000000 0.445797 0.402407 -0.192842 62.067429 31.054851 -0.000000 0.181704 0.249344 -0.440882
2.760000 -272.036010 686.509045 -0.000000 0.445957 0.401954 -0.192758 63.013098 26.815700 -0.000000 0.181523 0.249807 -0.440937
2.765000 -276.656516 697.091128 -0.000000 0.446086 0.401372 -0.192729 64.191491 22.622527 -0.000000 0.181293 0.250245 -0.440975
2.770000 -280.691615 708.247033 -0.000000 0.446211 0.400707 -0.192652 65.493123 18.381594 -0.000000 0.181056 0.250690 -0.441014
2.775000 -284.390396 720.002607 -0.000000 0.446308 0.400089 -0.192537 66.820191 13.976203 -0.000000 0.180813 0.251216 -0.441046
2.780000 -287.790111 732.367701 -0.000000 0.446455 0.399472 -0.192505 68.135580 9.253324 -0.000000 0.180594 0.251795 -0.441116
2.785000 -290.763824 745.330336 -0.000000 0.446567 0.398703 -0.192448 69.437188 4.038314 -0.000000 0.180337 0.252390 -0.441125
2.790000 -293.663234 758.629363 -0.000000 0.446684 0.398007 -0.192387 70.722532 -1.769828 -0.000000 0.180020 0.253059 -0.441132
2.795000 -296.573724 772.064722 -0.000000 0.446822 0.397316 -0.192287 71.968777 -8.232694 -0.000000 0.179661 0.253726 -0.441117
2.800000 -299.075178 785.610763 -0.000000 0.446992 0.396452 -0.192247 73.106913 -15.371569 -0.000000 0.179318 0.254427 -0.441095
2.805000 -301.610501 798.920638 -0.000000 0.447143 0.395768 -0.192221 74.053219 -23.020315 -0.000000 0.178938 0.255314 -0.441065
2.810000 -304.261457 811.801838 -0.000000 0.447331 0.394897 -0.192191 74.701835 -30.959789 -0.000000 0.178606 0.255988 -0.441112
